<?xml version="1.0" standalone="no"?>
<svg xmlns:xlink="http://www.w3.org/1999/xlink" id="wave" style="transform:rotate(0deg); transition: 0.3s" viewBox="0 0 1440 490" version="1.1" xmlns="http://www.w3.org/2000/svg"><defs><linearGradient id="sw-gradient-0" x1="0" x2="0" y1="1" y2="0"><stop stop-color="rgba(90.207, 222.06, 255, 1)" offset="0%"/><stop stop-color="rgba(180.351, 57.091, 255, 1)" offset="100%"/></linearGradient></defs><path style="transform:translate(0, 0px); opacity:1" fill="url(#sw-gradient-0)" d="M0,294L24,253.2C48,212,96,131,144,89.8C192,49,240,49,288,106.2C336,163,384,278,432,269.5C480,261,528,131,576,130.7C624,131,672,261,720,285.8C768,310,816,229,864,220.5C912,212,960,278,1008,261.3C1056,245,1104,147,1152,89.8C1200,33,1248,16,1296,81.7C1344,147,1392,294,1440,310.3C1488,327,1536,212,1584,147C1632,82,1680,65,1728,114.3C1776,163,1824,278,1872,285.8C1920,294,1968,196,2016,147C2064,98,2112,98,2160,106.2C2208,114,2256,131,2304,114.3C2352,98,2400,49,2448,98C2496,147,2544,294,2592,326.7C2640,359,2688,278,2736,212.3C2784,147,2832,98,2880,73.5C2928,49,2976,49,3024,40.8C3072,33,3120,16,3168,40.8C3216,65,3264,131,3312,138.8C3360,147,3408,98,3432,73.5L3456,49L3456,490L3432,490C3408,490,3360,490,3312,490C3264,490,3216,490,3168,490C3120,490,3072,490,3024,490C2976,490,2928,490,2880,490C2832,490,2784,490,2736,490C2688,490,2640,490,2592,490C2544,490,2496,490,2448,490C2400,490,2352,490,2304,490C2256,490,2208,490,2160,490C2112,490,2064,490,2016,490C1968,490,1920,490,1872,490C1824,490,1776,490,1728,490C1680,490,1632,490,1584,490C1536,490,1488,490,1440,490C1392,490,1344,490,1296,490C1248,490,1200,490,1152,490C1104,490,1056,490,1008,490C960,490,912,490,864,490C816,490,768,490,720,490C672,490,624,490,576,490C528,490,480,490,432,490C384,490,336,490,288,490C240,490,192,490,144,490C96,490,48,490,24,490L0,490Z"/><defs><linearGradient id="sw-gradient-1" x1="0" x2="0" y1="1" y2="0"><stop stop-color="rgba(48.452, 115.746, 255, 1)" offset="0%"/><stop stop-color="rgba(129.9, 11, 255, 1)" offset="100%"/></linearGradient></defs><path style="transform:translate(0, 50px); opacity:0.9" fill="url(#sw-gradient-1)" d="M0,294L24,318.5C48,343,96,392,144,400.2C192,408,240,376,288,351.2C336,327,384,310,432,326.7C480,343,528,392,576,408.3C624,425,672,408,720,343C768,278,816,163,864,114.3C912,65,960,82,1008,114.3C1056,147,1104,196,1152,253.2C1200,310,1248,376,1296,392C1344,408,1392,376,1440,310.3C1488,245,1536,147,1584,147C1632,147,1680,245,1728,310.3C1776,376,1824,408,1872,367.5C1920,327,1968,212,2016,187.8C2064,163,2112,229,2160,285.8C2208,343,2256,392,2304,400.2C2352,408,2400,376,2448,318.5C2496,261,2544,180,2592,155.2C2640,131,2688,163,2736,212.3C2784,261,2832,327,2880,343C2928,359,2976,327,3024,326.7C3072,327,3120,359,3168,310.3C3216,261,3264,131,3312,114.3C3360,98,3408,196,3432,245L3456,294L3456,490L3432,490C3408,490,3360,490,3312,490C3264,490,3216,490,3168,490C3120,490,3072,490,3024,490C2976,490,2928,490,2880,490C2832,490,2784,490,2736,490C2688,490,2640,490,2592,490C2544,490,2496,490,2448,490C2400,490,2352,490,2304,490C2256,490,2208,490,2160,490C2112,490,2064,490,2016,490C1968,490,1920,490,1872,490C1824,490,1776,490,1728,490C1680,490,1632,490,1584,490C1536,490,1488,490,1440,490C1392,490,1344,490,1296,490C1248,490,1200,490,1152,490C1104,490,1056,490,1008,490C960,490,912,490,864,490C816,490,768,490,720,490C672,490,624,490,576,490C528,490,480,490,432,490C384,490,336,490,288,490C240,490,192,490,144,490C96,490,48,490,24,490L0,490Z"/></svg>